<svg width="72" height="72" viewBox="0 0 72 72" fill="none" xmlns="http://www.w3.org/2000/svg">
<g clip-path="url(#clip0_10_233)">
<path d="M8.12349 16.0438C8.71827 14.0716 9.73566 12.4438 11.7548 11.6142C13.5078 10.8942 15.4957 10.9881 17.1861 10.1116C20.4261 8.46812 21.7722 3.86638 25.0278 2.20725C27.2817 1.06464 29.927 1.61247 32.2904 2.42638C34.6539 3.2403 38.3791 4.3203 40.8522 4.16378C42.6835 4.05421 44.4365 3.2716 46.2522 2.98986C50.7757 2.31682 55.2365 4.94638 58.5235 8.43682C61.8104 11.9273 62.4835 14.6351 65.3165 18.5794C66.6939 20.489 68.2435 22.4768 68.4313 24.9186C68.5409 26.2333 68.2278 27.5481 68.1652 28.8629C68.04 31.7899 69.1513 34.5916 69.8713 37.409C70.5913 40.2264 70.8261 43.5446 69.1826 45.8612C68.2904 47.129 66.9444 47.9273 65.927 49.1012C63.2817 52.2003 63.3287 57.5064 60.2296 60.0107C58.8209 61.1533 56.9113 61.5446 55.8 63.0473C55.127 63.9394 54.8609 65.129 54.2817 66.0994C53.0452 68.2281 50.6661 69.1203 48.4278 69.5899C44.9531 70.3099 40.0383 70.3568 36.5009 70.4038C33.5583 70.4351 30.5061 70.5133 27.6731 69.5742C24.3078 68.4629 21.3809 67.4142 17.8435 67.0073C17.0765 66.9133 16.2939 66.8038 15.6522 66.3655C13.6957 65.0507 13.2104 61.4977 11.6765 59.5881C9.81392 57.256 7.24697 55.6907 5.82262 52.9516C3.36523 48.2403 6.62088 42.5116 4.28871 37.722C3.20871 35.5307 1.33044 33.5116 1.54957 31.0229C1.64349 30.0055 2.0974 29.0664 2.52001 28.1586C4.50784 23.729 6.68349 20.6455 8.09218 16.0281L8.12349 16.0438Z" fill="white" stroke="black" stroke-width="3.13043" stroke-miterlimit="10"/>
<path d="M24.6678 45.9395C24.6678 45.9395 30.5061 48.2403 31.367 49.3829C32.2278 50.5255 37.8626 54.4542 37.8626 54.4542C37.8626 54.4542 41.1183 50.6351 44.4678 48.3342C47.8174 46.0334 48.96 45.9395 48.96 45.9395" stroke="black" stroke-width="3.13043" stroke-miterlimit="10"/>
<path d="M49.2922 25.5146C49.2922 25.5146 43.4539 23.2138 42.593 22.0712C41.7322 20.9286 36.0974 16.9999 36.0974 16.9999C36.0974 16.9999 32.8417 20.819 29.4922 23.1199C26.1426 25.4207 25 25.5146 25 25.5146" stroke="black" stroke-width="3.13043" stroke-miterlimit="10"/>
<path d="M37.8626 54.4542C37.8626 54.4542 38.1443 44.9847 38.3478 42.6838C38.5513 40.3829 37.393 38.4734 36.8139 37.3308C36.2348 36.1882 38.0035 32.0716 38.3635 28.9099C38.7235 25.7482 36.8139 17.5308 36.8139 17.5308" stroke="black" stroke-width="3.13043" stroke-miterlimit="10"/>
</g>
<defs>
<clipPath id="clip0_10_233">
<rect width="72" height="72" fill="white"/>
</clipPath>
</defs>
</svg>
