<svg width="533" height="76" viewBox="0 0 533 76" fill="none" xmlns="http://www.w3.org/2000/svg">
<path d="M531.22 64.2601C530.441 62.5161 529.787 60.7375 529.194 58.959C528.509 56.8178 529.974 54.832 530.441 52.7427C530.971 50.3252 530.441 47.8732 529.911 45.4731C528.945 41.0008 527.106 36.0623 531.033 31.9008C532 30.8993 533.309 29.8287 532.935 28.6891C532.623 27.7394 531.252 27.0832 530.192 26.358C526.358 23.7161 526.576 19.71 528.01 16.3083C529.787 12.0605 531.096 7.89906 532.592 3.65126C532.966 2.59795 531.594 1.63097 529.818 1.70004C514.514 2.26986 454.484 4.46283 446.786 4.46283C437.934 4.46283 380.429 -0.216652 375.286 0.00782545C370.144 0.232303 345.427 3.13324 336.919 2.90876C328.41 2.68428 326.602 4.68731 321.054 5.13626C315.506 5.58522 307.776 3.58219 297.086 2.90876C286.395 2.23533 119.989 3.35771 109.298 3.58219C98.6074 3.80667 84.5817 2.45981 77.5689 1.80364C70.5561 1.14748 54.3487 1.57917 42.162 1.57917C29.9752 1.57917 22.2456 7.15656 16.3548 6.48313C10.464 5.8097 2.36031 4.91179 0.490229 4.68731C-1.37986 4.46283 2.70316 18.9675 2.70316 18.9675C3.07718 22.3174 3.35769 25.6846 3.35769 29.0517C3.35769 30.9339 2.95251 32.7469 2.70316 34.6118C2.32915 37.7545 5.60179 39.5331 6.50567 42.4858C6.87969 43.6945 6.50567 44.9205 6.10048 46.1292C5.13427 49.1683 4.1369 52.1901 3.10835 55.2292C1.23826 60.7202 4.1369 65.0026 7.47188 70.0792L6.72385 73.9817C6.53684 74.9832 7.87707 75.8466 9.52897 75.7948C26.0481 75.2595 42.5983 74.6378 59.1486 74.4479C80.561 74.1889 209.909 71.7887 231.228 74.1198C235.778 74.6206 240.266 75.3285 244.848 75.6048C250.147 75.9156 255.476 75.6566 260.775 75.4149C275.081 74.7414 289.418 74.2234 303.756 73.6881C309.366 73.4809 314.976 73.2737 320.586 73.55C325.137 73.7745 329.594 74.3098 334.113 74.6206C354.092 76.0365 375.91 74.845 395.889 73.6708C407.327 72.9974 461.123 76.4509 468.51 75.9502C475.897 75.4494 495.065 73.4464 498.026 72.9974C500.987 72.5485 509.839 71.875 515.73 72.7729C519.657 73.36 526.109 73.7572 530.036 73.9644C531.75 74.0507 533.153 73.1701 532.935 72.134L531.22 64.2946V64.2601Z" fill="black"/>
</svg>
