<svg width="534" height="131" viewBox="0 0 534 131" fill="none" xmlns="http://www.w3.org/2000/svg">
<path d="M5.25061 125.21C3.43925 124.63 2.48968 122.31 3.2238 120.28C6.95823 110.06 8.07537 104.24 5.89695 93.1505C3.97388 83.3705 4.83567 73.0205 2.63331 63.3205C1.69172 59.1705 0.191568 55.0705 0.422975 50.7905C0.662362 46.4705 2.63331 44.5905 4.17337 40.6505C8.87333 28.6305 8.19506 19.6105 5.36232 7.36046C4.82769 5.05046 6.31189 2.78046 8.35466 2.78046H39.826C49.585 2.78046 76.6357 8.45046 80.833 9.35046C81.2 9.43046 81.5671 9.43046 81.9342 9.35046C86.4267 8.38046 116.845 1.90046 122.127 2.78046C127.41 3.66046 159.224 6.43046 161.155 6.59046C161.219 6.59046 161.275 6.59046 161.339 6.59046L223.659 5.54046C223.883 5.54046 224.098 5.52046 224.313 5.47046L243.839 0.810458C244.183 0.730458 244.526 0.710458 244.877 0.770458C248.396 1.34046 268.991 4.59046 279.404 4.59046C290.815 4.59046 365.791 7.46046 365.791 7.46046H379.316C379.412 7.46046 379.5 7.46046 379.596 7.45046L406.184 4.64046C406.415 4.62046 406.654 4.62046 406.886 4.66046C409.415 5.07046 424.999 7.63046 430.992 9.38046C439.307 11.8105 449.896 4.75046 457.404 0.940458C457.731 0.770458 458.075 0.680458 458.434 0.650458C461.594 0.420458 477.617 -0.359542 486.41 6.51046C496.193 14.1505 503.526 6.51046 510.045 5.55046C514.155 4.95046 521.999 3.10046 527.233 1.81046C529.563 1.24046 531.542 3.83046 530.816 6.48046C528.023 16.6505 526.755 25.8605 530.345 36.7105C531.479 40.1305 528.813 46.7105 530.25 49.9805C536.147 63.3805 532.468 88.0905 532.468 102.97V123.09C532.468 125.14 531.024 126.78 529.276 126.72C522.972 126.5 508.737 126.12 499.441 126.85C488.397 127.71 472.693 129.47 469.765 130.38C469.437 130.48 469.118 130.52 468.783 130.49C463.445 130.09 417.092 122.91 403.279 122.01C388.613 121.05 383.721 126.79 373.124 126.79C363.285 126.79 349.944 125.14 348.076 124.91C347.925 124.89 347.781 124.89 347.63 124.89L303.271 126.78C303.112 126.78 302.96 126.81 302.8 126.84C300.542 127.35 282.381 131.26 277.776 126.8C263.046 112.52 236.339 129.73 219.087 126.11C205.059 123.17 190.632 122.35 176.436 121.14C161.881 119.9 147.51 127.01 132.724 126.42C121.664 125.99 110.397 126.69 99.2897 126.69C99.2897 126.69 89.5068 126.54 78.9179 126.69C69.0552 126.83 52.1305 126.71 49.8404 126.69C49.6648 126.69 49.4973 126.67 49.3297 126.64C47.4784 126.26 35.6767 124.05 25.9496 126.76C18.6403 128.8 9.92663 126.7 5.22667 125.2L5.25061 125.21Z" stroke="black" stroke-miterlimit="10"/>
</svg>
