<svg width="344" height="131" viewBox="0 0 344 131" fill="none" xmlns="http://www.w3.org/2000/svg">
<path d="M3.3824 125.21C2.21553 124.63 1.60382 122.31 2.07674 120.28C4.48244 110.06 5.2021 104.24 3.79877 93.1505C2.55994 83.3705 3.1151 73.0205 1.69635 63.3205C1.08979 59.1705 0.123392 55.0705 0.272463 50.7905C0.426675 46.4705 1.69635 44.5905 2.68845 40.6505C5.71614 28.6305 5.2792 19.6105 3.45436 7.36046C3.10996 5.05046 4.06607 2.78046 5.38201 2.78046H25.6557C31.9424 2.78046 49.3683 8.45046 52.0722 9.35046C52.3086 9.43046 52.5451 9.43046 52.7815 9.35046C55.6756 8.38046 75.2707 1.90046 78.6737 2.78046C82.0766 3.66046 102.571 6.43046 103.815 6.59046C103.856 6.59046 103.892 6.59046 103.934 6.59046L144.08 5.54046C144.224 5.54046 144.363 5.52046 144.502 5.47046L157.08 0.810458C157.301 0.730458 157.522 0.710458 157.748 0.770458C160.015 1.34046 173.283 4.59046 179.991 4.59046C187.342 4.59046 235.641 7.46046 235.641 7.46046H244.354C244.415 7.46046 244.472 7.46046 244.533 7.45046L261.661 4.64046C261.81 4.62046 261.965 4.62046 262.114 4.66046C263.743 5.07046 273.782 7.63046 277.643 9.38046C282.999 11.8105 289.82 4.75046 294.657 0.940458C294.868 0.770458 295.089 0.680458 295.321 0.650458C297.356 0.420458 307.678 -0.359542 313.343 6.51046C319.645 14.1505 324.369 6.51046 328.569 5.55046C331.216 4.95046 336.269 3.10046 339.641 1.81046C341.142 1.24046 342.417 3.83046 341.949 6.48046C340.15 16.6505 339.333 25.8605 341.646 36.7105C342.376 40.1305 340.659 46.7105 341.584 49.9805C345.383 63.3805 343.013 88.0905 343.013 102.97V123.09C343.013 125.14 342.083 126.78 340.957 126.72C336.896 126.5 327.726 126.12 321.737 126.85C314.623 127.71 304.506 129.47 302.62 130.38C302.409 130.48 302.204 130.52 301.988 130.49C298.549 130.09 268.688 122.91 259.79 122.01C250.342 121.05 247.191 126.79 240.365 126.79C234.027 126.79 225.432 125.14 224.229 124.91C224.131 124.89 224.039 124.89 223.941 124.89L195.366 126.78C195.263 126.78 195.165 126.81 195.062 126.84C193.608 127.35 181.908 131.26 178.942 126.8C169.453 112.52 152.248 129.73 141.135 126.11C132.098 123.17 122.804 122.35 113.659 121.14C104.283 119.9 95.0253 127.01 85.5001 126.42C78.3755 125.99 71.1173 126.69 63.9619 126.69C63.9619 126.69 57.6598 126.54 50.8385 126.69C44.485 126.83 33.5822 126.71 32.1069 126.69C31.9938 126.69 31.8859 126.67 31.7779 126.64C30.5853 126.26 22.9827 124.05 16.7166 126.76C12.008 128.8 6.39467 126.7 3.36698 125.2L3.3824 125.21Z" stroke="black" stroke-miterlimit="10"/>
</svg>
