<svg width="90" height="91" viewBox="0 0 90 91" fill="none" xmlns="http://www.w3.org/2000/svg">
<g clip-path="url(#clip0_14_189)">
<path d="M15.7916 19.4734C16.6952 17.3255 18.0332 15.6153 20.4033 14.9221C22.4609 14.3206 24.6859 14.6626 26.6918 13.8776C30.532 12.414 32.5934 7.39739 36.4531 5.91807C39.1245 4.9007 42.035 5.83148 44.597 7.0281C47.159 8.22472 51.2212 9.88258 54.0219 10.0005C56.095 10.095 58.1601 9.42308 60.2361 9.32203C65.4048 9.10273 70.1103 12.5912 73.3929 16.9086C76.6755 21.2259 77.1107 24.3521 79.8287 29.1261C81.1511 31.438 82.6579 33.8584 82.5789 36.6275C82.5458 38.1196 82.0374 39.5614 81.8106 41.033C81.3217 44.3108 82.2388 47.5947 82.7137 50.8497C83.1887 54.1047 83.0583 57.8655 80.934 60.276C79.7796 61.5961 78.1705 62.3341 76.8864 63.5337C73.5422 66.7055 72.9641 72.6801 69.18 75.1289C67.4595 76.2467 65.2648 76.4599 63.836 78.0181C62.9728 78.9417 62.532 80.2482 61.7651 81.2711C60.121 83.5187 57.3386 84.2394 54.7649 84.5015C50.7703 84.8984 45.2359 84.3668 41.251 83.999C37.937 83.6844 34.4942 83.4095 31.4189 82.0162C27.7654 80.3659 24.5974 78.8382 20.6664 77.9598C19.8148 77.763 18.9475 77.5467 18.2777 76.9773C16.233 75.2657 16.1096 71.211 14.6111 68.8805C12.7931 66.0355 10.0915 63.9695 8.81493 60.7188C6.61069 55.1267 10.9542 49.0694 8.90016 43.4041C7.94578 40.8106 6.07292 38.3159 6.61534 35.5423C6.84195 34.409 7.46424 33.4065 8.04759 32.4355C10.8104 27.6889 13.6245 24.4788 15.7582 19.452L15.7916 19.4734Z" fill="black" stroke="black" stroke-width="3.54116" stroke-miterlimit="10"/>
<path d="M39.6441 55.8014C39.6441 55.8014 42.825 50.652 43.6726 49.4439C44.5202 48.2359 44.4893 46.8093 44.5339 45.9921C44.5785 45.1749 46.8721 43.4623 48.0813 41.8279C49.2904 40.1935 50.8589 35.0369 50.8589 35.0369" stroke="white" stroke-width="2" stroke-miterlimit="10"/>
<path d="M53.8506 53.6886C53.8506 53.6886 49.6999 49.2834 48.7523 48.152C47.8048 47.0206 46.4189 46.6812 45.6411 46.4267C44.8632 46.1721 43.8026 43.5134 42.5369 41.9224C41.2711 40.3314 36.6962 37.4818 36.6962 37.4818" stroke="white" stroke-width="2" stroke-miterlimit="10"/>
</g>
<defs>
<clipPath id="clip0_14_189">
<rect width="81.4467" height="81.4467" fill="white" transform="translate(8.56079 0.459473) rotate(6.03345)"/>
</clipPath>
</defs>
</svg>
