<svg width="276" height="46" viewBox="0 0 276 46" fill="none" xmlns="http://www.w3.org/2000/svg">
<path d="M273.754 38.2202C273.238 37.2102 272.803 36.1802 272.411 35.1502C271.956 33.9102 272.927 32.7602 273.238 31.5502C273.589 30.1502 273.238 28.7302 272.886 27.3402C272.245 24.7502 271.026 21.8902 273.63 19.4802C274.271 18.9002 275.139 18.2802 274.891 17.6202C274.685 17.0702 273.775 16.6902 273.072 16.2702C270.53 14.7402 270.674 12.4202 271.625 10.4502C272.803 7.99018 273.672 5.58019 274.664 3.12019C274.912 2.51019 274.002 1.95019 272.824 1.99019C262.674 2.32019 222.861 3.59019 217.755 3.59019C211.884 3.59019 173.745 0.88019 170.334 1.01019C166.923 1.14019 150.531 2.82019 144.887 2.69019C139.244 2.56019 138.045 3.72019 134.365 3.98019C130.686 4.24019 125.559 3.08019 118.469 2.69019C111.379 2.30019 80.1026 1.13027 73.0122 1.26027C65.9218 1.39027 56.6196 0.610269 51.9684 0.230269C47.3173 -0.149731 36.5681 0.100269 28.4855 0.100269C20.4028 0.100269 15.2763 3.33027 11.3693 2.94027C7.4624 2.55027 2.08777 2.03027 0.84747 1.90027C-0.392828 1.77027 2.31516 10.1703 2.31516 10.1703C2.56322 12.1103 2.74926 14.0603 2.74926 16.0103C2.74926 17.1003 2.48053 18.1503 2.31516 19.2303C2.0671 21.0503 4.23762 22.0803 4.8371 23.7903C5.08516 24.4903 4.8371 25.2003 4.56837 25.9003C3.92755 27.6603 3.26605 29.4103 2.58389 31.1703C1.34359 34.3503 3.26605 36.8303 5.47792 39.7703L4.9818 42.0303C4.85777 42.6103 5.74665 43.1103 6.84225 43.0803C17.7982 42.7703 28.7749 42.4103 39.7515 42.3003C53.9529 42.1503 60.6504 42.5802 74.7898 43.9302C77.8079 44.2202 80.7846 44.6302 83.8233 44.7902C87.3375 44.9702 90.8723 44.8202 94.3865 44.6802C103.875 44.2902 113.384 43.9902 122.893 43.6802C126.614 43.5602 130.334 43.4402 134.055 43.6002C137.073 43.7302 140.029 44.0402 143.027 44.2202C156.277 45.0402 170.748 44.3502 183.998 43.6702C191.585 43.2802 227.264 45.2802 232.163 44.9902C237.062 44.7002 249.775 43.5402 251.739 43.2802C253.703 43.0202 259.574 42.6302 263.481 43.1502C266.085 43.4902 270.364 43.7202 272.969 43.8402C274.106 43.8902 275.036 43.3802 274.891 42.7802L273.754 38.2402V38.2202Z" fill="white" stroke="black" stroke-miterlimit="10"/>
</svg>
