<svg width="134" height="46" viewBox="0 0 134 46" fill="none" xmlns="http://www.w3.org/2000/svg">
<path d="M132.43 38.2199C132.18 37.2099 131.97 36.1799 131.78 35.1499C131.56 33.9099 132.03 32.7599 132.18 31.5499C132.35 30.1499 132.18 28.7299 132.01 27.3399C131.7 24.7499 131.11 21.8899 132.37 19.4799C132.68 18.8999 133.1 18.2799 132.98 17.6199C132.88 17.0699 132.44 16.6899 132.1 16.2699C130.87 14.7399 130.94 12.4199 131.4 10.4499C131.97 7.98993 132.39 5.57994 132.87 3.11994C132.99 2.50994 132.55 1.94995 131.98 1.98995C127.07 2.31995 107.81 3.58994 105.34 3.58994C102.5 3.58994 84.0499 0.879946 82.3999 1.00995C80.7499 1.13995 72.8199 2.81994 70.0899 2.68994C67.3599 2.55994 66.7799 3.71994 64.9999 3.97994C63.2199 4.23994 60.7399 3.07994 57.3099 2.68994C53.8799 2.29994 38.75 1.13002 35.32 1.26002C31.89 1.39002 27.39 0.610025 25.14 0.230025C22.89 -0.149975 17.69 0.100025 13.78 0.100025C9.86997 0.100025 7.38997 3.33003 5.49997 2.94003C3.60997 2.55003 1.00997 2.03003 0.409969 1.90003C-0.190031 1.77003 1.11997 10.17 1.11997 10.17C1.23997 12.11 1.32997 14.06 1.32997 16.01C1.32997 17.1 1.19997 18.15 1.11997 19.23C0.999969 21.05 2.04997 22.08 2.33997 23.79C2.45997 24.49 2.33997 25.2 2.20997 25.9C1.89997 27.66 1.57997 29.41 1.24997 31.17C0.649969 34.35 1.57997 36.83 2.64997 39.77L2.40997 42.03C2.34997 42.61 2.77997 43.11 3.30997 43.08C8.60997 42.77 13.92 42.41 19.23 42.3C26.1 42.15 29.3399 42.5799 36.1799 43.9299C37.6399 44.2199 39.0799 44.6299 40.5499 44.7899C42.2499 44.9699 43.9599 44.8199 45.6599 44.6799C50.2499 44.2899 54.8499 43.9899 59.4499 43.6799C61.2499 43.5599 63.0499 43.4399 64.8499 43.5999C66.3099 43.7299 67.7399 44.0399 69.1899 44.2199C75.5999 45.0399 82.5999 44.3499 89.0099 43.6699C92.6799 43.2799 109.94 45.2799 112.31 44.9899C114.68 44.6999 120.83 43.5399 121.78 43.2799C122.73 43.0199 125.57 42.6299 127.46 43.1499C128.72 43.4899 130.79 43.7199 132.05 43.8399C132.6 43.8899 133.05 43.3799 132.98 42.7799L132.43 38.2399V38.2199Z" fill="white" stroke="black" stroke-miterlimit="10"/>
</svg>
