<svg width="48" height="41" viewBox="0 0 48 41" fill="none" xmlns="http://www.w3.org/2000/svg">
<g clip-path="url(#clip0_10_279)">
<path d="M14.0997 23.5325C16.7893 23.3164 17.7515 19.6958 20.1602 19.2515C22.3119 18.8552 23.2622 16.7117 24.864 15.4689C25.6589 14.8504 26.4359 14.292 27.4699 14.202C27.7866 14.172 28.1213 14.184 28.4142 14.0579C28.9999 13.7997 29.233 13.0792 29.7172 12.6589C30.2431 12.2026 31.0082 12.1485 31.6178 11.8063C32.8012 11.1278 33.4527 9.951 34.7497 9.35058C36.2558 8.64809 37.9293 8.29984 39.3339 7.38721C41.0612 6.26442 38.8259 10.4554 36.2797 12.1906C33.7336 13.9258 32.4127 14.5562 32.0063 15.3668C31.5999 16.1774 29.1553 20.4704 28.8505 20.5724C28.5457 20.6745 21.6245 24.9675 21.6245 24.9675L20.9491 25.8261C20.3036 26.6487 20.5606 27.8615 21.493 28.3359C23.8001 29.5247 27.6073 31.5241 28.4441 32.2206C29.6634 33.2413 30.1714 34.1599 30.781 35.2887C31.3907 36.4175 32.8132 36.7177 34.3432 36.8198C35.8733 36.9219 38.1086 40.3983 39.4295 40.5004C40.7504 40.6025 43.8046 31.1999 43.8046 27.5193C43.8046 23.8387 44.0078 20.2602 45.1255 17.9126C46.2431 15.5649 46.4463 14.1299 46.4463 13.4154C46.4463 12.7009 46.7512 9.53071 46.4463 9.22449C46.1415 8.91828 47.8688 4.82941 47.9704 2.48177C48.072 0.134128 48.1736 -0.280162 41.36 2.07349C34.5464 4.42713 30.1714 4.73335 29.4602 5.44785C28.7489 6.16235 27.428 7.48928 26.3044 7.79549C25.1807 8.10171 11.8584 11.4761 10.4359 12.2926C9.01339 13.1092 8.30215 14.232 8.30215 14.232C8.30215 14.232 3.72389 15.7631 2.09819 16.6877C0.472489 17.6124 -1.66722 18.8312 2.09819 19.96C5.8636 21.0888 7.69251 21.8994 9.62901 22.824C11.5655 23.7487 14.0997 23.5385 14.1057 23.5385L14.0997 23.5325Z" fill="black"/>
</g>
<defs>
<clipPath id="clip0_10_279">
<rect width="48" height="40" fill="white" transform="translate(0 0.5)"/>
</clipPath>
</defs>
</svg>
