<svg width="48" height="43" viewBox="0 0 48 43" fill="none" xmlns="http://www.w3.org/2000/svg">
<g clip-path="url(#clip0_10_276)">
<path d="M2.31192 42.1439C2.31192 42.1439 6.59627 39.3657 7.29277 36.7914C7.98927 34.2171 8.78527 34.9102 10.1841 32.9242C11.583 30.9381 12.578 29.552 14.4685 27.5717C16.359 25.5915 17.3598 24.8926 17.6583 23.6055C17.9568 22.3183 10.3831 14.7818 9.98513 13.5937C9.58713 12.4055 8.39313 8.53828 7.09377 7.35014C5.79442 6.16201 2.61042 2.59178 2.31192 1.30463C2.01342 0.0174883 7.19327 1.70068 9.18327 1.30463C11.1733 0.908589 13.9651 1.20562 14.9601 0.809578C15.9551 0.413533 18.946 0.809578 18.946 0.809578C18.946 0.809578 20.339 5.96399 22.2353 7.54817C24.1317 9.13235 28.4102 14.3858 28.4102 14.3858C28.4102 14.3858 35.6854 7.04729 36.2824 5.76014C36.8794 4.47299 37.1779 5.46311 38.3719 4.17596C39.5659 2.88881 40.3619 0.629028 40.3619 0.629028C40.3619 0.629028 46.3378 1.29881 46.7358 1.49683C47.1338 1.69486 41.7549 7.04729 40.3619 8.63729C38.9689 10.2273 37.7691 10.0234 37.0726 11.3164C36.3761 12.6094 31.3952 18.2647 31.3952 18.2647C31.3952 18.2647 35.4806 22.5163 35.9781 24.8984C36.4756 27.2805 37.8686 28.6667 38.2666 28.8647C38.6646 29.0627 41.3569 30.7459 42.0534 33.227C42.7499 35.7081 45.2842 37.9854 46.7592 40.2685C48.2341 42.5515 47.0343 42.1497 44.6463 41.7536C42.2583 41.3576 39.3669 41.6546 37.172 42.1497C34.9772 42.6447 30.0958 41.5556 30.0958 41.5556C30.0958 41.5556 25.7764 33.425 24.7989 32.2369C23.8215 31.0488 21.6266 29.4588 21.4276 28.8647C21.2286 28.2706 17.7403 32.732 16.4468 33.5241C15.1533 34.3161 14.0529 35.7023 13.2569 36.8963C12.4609 38.0902 10.2661 39.6744 10.0671 40.3675C9.86807 41.0606 8.67407 42.2836 8.67407 42.2836C8.67407 42.2836 8.17657 42.6098 6.28021 42.2836C4.38386 41.9575 2.29436 42.1555 2.29436 42.1555L2.31192 42.1439Z" stroke="black" stroke-width="2" stroke-miterlimit="10"/>
<path d="M11.6766 6.2613C11.6766 6.2613 12.6716 10.5246 14.2694 11.7127C15.8673 12.9009 18.6533 15.8945 19.8473 18.265C21.0413 20.6354 25.2262 24.2056 26.7187 26.1859C28.2112 28.1661 27.7137 30.8452 29.5105 32.5284C31.3074 34.2116 33.3969 38.4749 33.3969 38.4749L38.9747 37.9798C38.9747 37.9798 32.5014 28.3641 32.0039 27.572C31.5064 26.7799 25.0915 18.6668 24.8106 18.265C24.5297 17.8631 24.0322 16.3721 24.0322 16.3721C24.0322 16.3721 20.0463 11.4157 19.2503 10.5246C18.4543 9.63351 15.8614 5.66724 15.8614 5.66724L11.6766 6.2613Z" fill="black"/>
</g>
<defs>
<clipPath id="clip0_10_276">
<rect width="48" height="43" fill="white"/>
</clipPath>
</defs>
</svg>
