<svg width="344" height="76" viewBox="0 0 344 76" fill="none" xmlns="http://www.w3.org/2000/svg">
<path d="M342.854 64.2601C342.352 62.5161 341.93 60.7375 341.548 58.959C341.107 56.8178 342.05 54.832 342.352 52.7427C342.693 50.3252 342.352 47.8732 342.01 45.4731C341.388 41.0008 340.203 36.0623 342.733 31.9008C343.356 30.8993 344.199 29.8287 343.958 28.6891C343.757 27.7394 342.874 27.0832 342.191 26.358C339.721 23.7161 339.862 19.71 340.785 16.3083C341.93 12.0605 342.773 7.89906 343.737 3.65126C343.978 2.59795 343.094 1.63097 341.95 1.70004C332.092 2.26986 293.421 4.46283 288.461 4.46283C282.759 4.46283 245.715 -0.216652 242.402 0.00782545C239.089 0.232303 223.167 3.13324 217.685 2.90876C212.204 2.68428 211.039 4.68731 207.465 5.13626C203.892 5.58522 198.912 3.58219 192.025 2.90876C185.138 2.23533 77.9403 3.35771 71.0534 3.58219C64.1665 3.80667 55.1313 2.45981 50.6137 1.80364C46.0961 1.14748 35.6553 1.57917 27.8047 1.57917C19.9541 1.57917 14.9747 7.15656 11.1799 6.48313C7.38506 5.8097 2.1647 4.91179 0.959999 4.68731C-0.2447 4.46283 2.38556 18.9675 2.38556 18.9675C2.6265 22.3174 2.8072 25.6846 2.8072 29.0517C2.8072 30.9339 2.54619 32.7469 2.38556 34.6118C2.14462 37.7545 4.25284 39.5331 4.83511 42.4858C5.07605 43.6945 4.83511 44.9205 4.5741 46.1292C3.95167 49.1683 3.30916 52.1901 2.64658 55.2292C1.44188 60.7202 3.30916 65.0026 5.45754 70.0792L4.97566 73.9817C4.85519 74.9832 5.71856 75.8466 6.78271 75.7948C17.4242 75.2595 28.0858 74.6378 38.7474 74.4479C52.5412 74.1889 135.866 71.7887 149.6 74.1198C152.531 74.6206 155.423 75.3285 158.374 75.6048C161.787 75.9156 165.221 75.6566 168.634 75.4149C177.85 74.7414 187.086 74.2234 196.322 73.6881C199.936 73.4809 203.55 73.2737 207.164 73.55C210.096 73.7745 212.967 74.3098 215.878 74.6206C228.749 76.0365 242.803 74.845 255.674 73.6708C263.042 72.9974 297.697 76.4509 302.456 75.9502C307.215 75.4494 319.563 73.4464 321.47 72.9974C323.378 72.5485 329.08 71.875 332.875 72.7729C335.405 73.36 339.561 73.7572 342.091 73.9644C343.195 74.0507 344.098 73.1701 343.958 72.134L342.854 64.2946V64.2601Z" fill="black"/>
</svg>
