<svg width="171" height="45" viewBox="0 0 171 45" fill="none" xmlns="http://www.w3.org/2000/svg">
<path d="M170.43 37.2482C170.18 36.2382 169.97 35.2082 169.78 34.1782C169.56 32.9382 170.03 31.7882 170.18 30.5782C170.35 29.1782 170.18 27.7582 170.01 26.3682C169.7 23.7782 169.11 20.9182 170.37 18.5082C170.68 17.9282 171.1 17.3082 170.98 16.6482C170.88 16.0982 170.44 15.7182 170.1 15.2982C168.87 13.7682 168.94 11.4482 169.4 9.47822C169.97 7.01822 170.39 4.60822 170.87 2.14822C170.99 1.53822 170.55 0.978223 169.98 1.01822C165.07 1.34822 145.81 2.61822 143.34 2.61822C140.5 2.61822 122.05 -0.0917767 120.4 0.0382233C118.75 0.168223 110.82 1.84822 108.09 1.71822C105.36 1.58822 104.78 2.74822 103 3.00822C101.22 3.26822 98.74 2.10822 95.31 1.71822C91.88 1.32822 38.49 1.97822 35.06 2.10822C31.63 2.23822 27.13 1.45822 24.88 1.07822C22.63 0.698223 17.43 0.948223 13.52 0.948223C9.61002 0.948223 7.13002 4.17822 5.24002 3.78822C3.35002 3.39822 0.750022 2.87822 0.150022 2.74822C-0.449978 2.61822 0.860022 11.0182 0.860022 11.0182C0.980022 12.9582 1.07002 14.9082 1.07002 16.8582C1.07002 17.9482 0.940022 18.9982 0.860022 20.0782C0.740022 21.8982 1.79002 22.9282 2.08002 24.6382C2.20002 25.3382 2.08002 26.0482 1.95002 26.7482C1.64002 28.5082 1.32002 30.2582 0.990022 32.0182C0.390022 35.1982 1.32002 37.6782 2.39002 40.6182L2.15002 42.8782C2.09002 43.4582 2.52002 43.9582 3.05002 43.9282C8.35002 43.6182 13.66 43.2582 18.97 43.1482C25.84 42.9982 67.34 41.6082 74.18 42.9582C75.64 43.2482 77.08 43.6582 78.55 43.8182C80.25 43.9982 81.96 43.8482 83.66 43.7082C88.25 43.3182 92.85 43.0182 97.45 42.7082C99.25 42.5882 101.05 42.4682 102.85 42.6282C104.31 42.7582 105.74 43.0682 107.19 43.2482C113.6 44.0682 120.6 43.3782 127.01 42.6982C130.68 42.3082 147.94 44.3082 150.31 44.0182C152.68 43.7282 158.83 42.5682 159.78 42.3082C160.73 42.0482 163.57 41.6582 165.46 42.1782C166.72 42.5182 168.79 42.7482 170.05 42.8682C170.6 42.9182 171.05 42.4082 170.98 41.8082L170.43 37.2682V37.2482Z" fill="black"/>
</svg>
