<svg width="171" height="45" viewBox="0 0 171 45" fill="none" xmlns="http://www.w3.org/2000/svg">
<path d="M170.43 37.22C170.18 36.21 169.97 35.18 169.78 34.15C169.56 32.91 170.03 31.76 170.18 30.55C170.35 29.15 170.18 27.73 170.01 26.34C169.7 23.75 169.11 20.89 170.37 18.48C170.68 17.9 171.1 17.28 170.98 16.62C170.88 16.07 170.44 15.69 170.1 15.27C168.87 13.74 168.94 11.42 169.4 9.45002C169.97 6.99002 170.39 4.58002 170.87 2.12002C170.99 1.51002 170.55 0.950025 169.98 0.990025C165.07 1.32003 145.81 2.59002 143.34 2.59002C140.5 2.59002 122.05 -0.119975 120.4 0.0100251C118.75 0.140025 110.82 1.82003 108.09 1.69003C105.36 1.56003 104.78 2.72003 103 2.98003C101.22 3.24003 98.74 2.08003 95.31 1.69003C91.88 1.30003 38.49 1.95002 35.06 2.08002C31.63 2.21002 27.13 1.43002 24.88 1.05002C22.63 0.670025 17.43 0.920025 13.52 0.920025C9.61001 0.920025 7.13001 4.15003 5.24001 3.76003C3.35001 3.37003 0.750007 2.85003 0.150007 2.72003C-0.449993 2.59002 0.860007 10.99 0.860007 10.99C0.980007 12.93 1.07001 14.88 1.07001 16.83C1.07001 17.92 0.940007 18.97 0.860007 20.05C0.740007 21.87 1.79001 22.9 2.08001 24.61C2.20001 25.31 2.08001 26.02 1.95001 26.72C1.64001 28.48 1.32001 30.23 0.990007 31.99C0.390007 35.17 1.32001 37.65 2.39001 40.59L2.15001 42.85C2.09001 43.43 2.52001 43.93 3.05001 43.9C8.35001 43.59 13.66 43.23 18.97 43.12C25.84 42.97 67.34 41.58 74.18 42.93C75.64 43.22 77.08 43.63 78.55 43.79C80.25 43.97 81.96 43.82 83.66 43.68C88.25 43.29 92.85 42.99 97.45 42.68C99.25 42.56 101.05 42.44 102.85 42.6C104.31 42.73 105.74 43.04 107.19 43.22C113.6 44.04 120.6 43.35 127.01 42.67C130.68 42.28 147.94 44.28 150.31 43.99C152.68 43.7 158.83 42.54 159.78 42.28C160.73 42.02 163.57 41.63 165.46 42.15C166.72 42.49 168.79 42.72 170.05 42.84C170.6 42.89 171.05 42.38 170.98 41.78L170.43 37.24V37.22Z" fill="black"/>
</svg>
