<svg width="57" height="63" viewBox="0 0 57 63" fill="none" xmlns="http://www.w3.org/2000/svg">
<g clip-path="url(#clip0_5_67)">
<path d="M47.3033 55.7204C47.3033 55.7204 40.4292 63.3454 32.0337 57.1583C24.2768 51.4389 22.693 51.3229 22.8086 44.774C22.9243 38.2251 28.1806 31.8895 33.5099 36.9791C38.8391 42.0687 43.3912 45.6307 38.5486 49.6124C33.7061 53.5941 22.9308 48.2375 15.9044 40.7884C-0.358649 23.5624 5.59628 10.9429 27.6985 5.06088" stroke="black" stroke-width="2" stroke-miterlimit="10"/>
<path d="M27.4105 24.3727C27.4105 24.3727 29.3201 20.3831 27.7708 15.4503C26.2214 10.5175 27.6968 5.07073 27.6968 5.07073C27.6968 5.07073 22.9877 2.34421 19.3153 3.59728C15.6429 4.85035 11.2798 4.08333 11.2798 4.08333L9.51717 4.29129" stroke="black" stroke-width="2" stroke-miterlimit="10"/>
</g>
<defs>
<clipPath id="clip0_5_67">
<rect width="47.75" height="54.75" fill="white" transform="matrix(-0.984897 -0.173143 -0.173143 0.984897 56.5084 8.26758)"/>
</clipPath>
</defs>
</svg>
