<svg width="173" height="46" viewBox="0 0 173 46" fill="none" xmlns="http://www.w3.org/2000/svg">
<path d="M171.43 38.22C171.18 37.21 170.97 36.18 170.78 35.15C170.56 33.91 171.03 32.76 171.18 31.55C171.35 30.15 171.18 28.73 171.01 27.34C170.7 24.75 170.11 21.89 171.37 19.48C171.68 18.9 172.1 18.28 171.98 17.62C171.88 17.07 171.44 16.69 171.1 16.27C169.87 14.74 169.94 12.42 170.4 10.45C170.97 7.99002 171.39 5.58002 171.87 3.12002C171.99 2.51002 171.55 1.95003 170.98 1.99003C166.07 2.32003 146.81 3.59002 144.34 3.59002C141.5 3.59002 123.05 0.880025 121.4 1.01003C119.75 1.14003 111.82 2.82003 109.09 2.69003C106.36 2.56003 105.78 3.72003 104 3.98003C102.22 4.24003 99.74 3.08003 96.31 2.69003C92.88 2.30003 39.49 2.95002 36.06 3.08002C32.63 3.21002 28.13 2.43002 25.88 2.05002C23.63 1.67002 18.43 1.92003 14.52 1.92003C10.61 1.92003 8.12999 5.15003 6.23999 4.76003C4.34999 4.37003 1.74999 3.85003 1.14999 3.72003C0.549992 3.59002 1.85999 11.99 1.85999 11.99C1.97999 13.93 2.06999 15.88 2.06999 17.83C2.06999 18.92 1.93999 19.97 1.85999 21.05C1.73999 22.87 2.78999 23.9 3.07999 25.61C3.19999 26.31 3.07999 27.02 2.94999 27.72C2.63999 29.48 2.31999 31.23 1.98999 32.99C1.38999 36.17 2.31999 38.65 3.38999 41.59L3.14999 43.85C3.08999 44.43 3.51999 44.93 4.04999 44.9C9.34999 44.59 14.66 44.23 19.97 44.12C26.84 43.97 68.34 42.58 75.18 43.93C76.64 44.22 78.08 44.63 79.55 44.79C81.25 44.97 82.96 44.82 84.66 44.68C89.25 44.29 93.85 43.99 98.45 43.68C100.25 43.56 102.05 43.44 103.85 43.6C105.31 43.73 106.74 44.04 108.19 44.22C114.6 45.04 121.6 44.35 128.01 43.67C131.68 43.28 148.94 45.28 151.31 44.99C153.68 44.7 159.83 43.54 160.78 43.28C161.73 43.02 164.57 42.63 166.46 43.15C167.72 43.49 169.79 43.72 171.05 43.84C171.6 43.89 172.05 43.38 171.98 42.78L171.43 38.24V38.22Z" fill="white" stroke="black" stroke-miterlimit="10"/>
</svg>
