<svg width="134" height="46" viewBox="0 0 134 46" fill="none" xmlns="http://www.w3.org/2000/svg">
<path d="M132.43 38.2485C132.18 37.2385 131.97 36.2085 131.78 35.1785C131.56 33.9385 132.03 32.7885 132.18 31.5785C132.35 30.1785 132.18 28.7585 132.01 27.3685C131.7 24.7785 131.11 21.9185 132.37 19.5085C132.68 18.9285 133.1 18.3085 132.98 17.6485C132.88 17.0985 132.44 16.7185 132.1 16.2985C130.87 14.7685 130.94 12.4485 131.4 10.4785C131.97 8.0185 132.39 5.60851 132.87 3.14851C132.99 2.53851 132.55 1.97851 131.98 2.01851C127.07 2.34851 107.81 3.61851 105.34 3.61851C102.5 3.61851 84.0499 0.908511 82.3999 1.03851C80.7499 1.16851 72.8199 2.84851 70.0899 2.71851C67.3599 2.58851 66.7799 3.74851 64.9999 4.00851C63.2199 4.26851 60.7399 3.10851 57.3099 2.71851C53.8799 2.32851 38.75 1.15859 35.32 1.28859C31.89 1.41859 27.39 0.638589 25.14 0.258589C22.89 -0.121411 17.69 0.128589 13.78 0.128589C9.86997 0.128589 7.38997 3.35859 5.49997 2.96859C3.60997 2.57859 1.00997 2.05859 0.409969 1.92859C-0.190031 1.79859 1.11997 10.1986 1.11997 10.1986C1.23997 12.1386 1.32997 14.0886 1.32997 16.0386C1.32997 17.1286 1.19997 18.1786 1.11997 19.2586C0.999969 21.0786 2.04997 22.1086 2.33997 23.8186C2.45997 24.5186 2.33997 25.2286 2.20997 25.9286C1.89997 27.6886 1.57997 29.4386 1.24997 31.1986C0.649969 34.3786 1.57997 36.8586 2.64997 39.7986L2.40997 42.0586C2.34997 42.6386 2.77997 43.1386 3.30997 43.1086C8.60997 42.7986 13.92 42.4386 19.23 42.3286C26.1 42.1786 29.3399 42.6085 36.1799 43.9585C37.6399 44.2485 39.0799 44.6585 40.5499 44.8185C42.2499 44.9985 43.9599 44.8485 45.6599 44.7085C50.2499 44.3185 54.8499 44.0185 59.4499 43.7085C61.2499 43.5885 63.0499 43.4685 64.8499 43.6285C66.3099 43.7585 67.7399 44.0685 69.1899 44.2485C75.5999 45.0685 82.5999 44.3785 89.0099 43.6985C92.6799 43.3085 109.94 45.3085 112.31 45.0185C114.68 44.7285 120.83 43.5685 121.78 43.3085C122.73 43.0485 125.57 42.6585 127.46 43.1785C128.72 43.5185 130.79 43.7485 132.05 43.8685C132.6 43.9185 133.05 43.4085 132.98 42.8085L132.43 38.2685V38.2485Z" fill="white" stroke="black" stroke-miterlimit="10"/>
</svg>
