<svg width="120" height="41" viewBox="0 0 120 41" fill="none" xmlns="http://www.w3.org/2000/svg">
<path d="M3.37344 1.97192C4.26208 8.98226 4.55764 15.5442 3.61345 22.5827C3.42748 23.969 1.11734 39.6719 3.01343 39.4133C11.4114 38.2681 19.886 38.1989 28.2144 36.5332" stroke="black" stroke-width="3" stroke-linecap="round"/>
<path d="M41.1748 18.7126C35.2116 18.7126 34.7029 29.0752 36.1946 33.0531C39.3464 41.4578 48.4092 38.9888 54.3153 35.5732C59.0503 32.8349 69.5817 22.5703 65.3557 16.4325C61.9359 11.4657 55.1603 10.4032 49.6051 9.35223C45.3574 8.54861 39.6973 6.77168 39.0147 12.2323" stroke="black" stroke-width="3" stroke-linecap="round"/>
<path d="M87.0765 12.7724C78.2316 12.281 70.434 16.8671 68.9559 26.3929C68.3759 30.1304 69.357 36.4858 73.636 37.7933C77.4679 38.9642 82.4998 36.4492 85.2165 33.8332C89.7359 29.4811 85.2103 23.6916 79.8763 23.8128C78.4748 23.8446 77.4151 24.9686 78.7062 25.9729C79.6256 26.6879 81.6608 26.2729 82.7564 26.2729" stroke="black" stroke-width="3" stroke-linecap="round"/>
<path d="M100.037 19.2526C95.0938 19.2526 92.1038 26.4313 92.5967 30.473C93.6322 38.964 102.759 40.2483 108.737 35.8432C112.358 33.1754 120.881 24.6434 116.988 19.2526C113.598 14.5599 104.14 13.8957 98.9569 14.9324" stroke="black" stroke-width="3" stroke-linecap="round"/>
</svg>
